/* XPM */
static char *de37ef250b354d6fad32e896ead521dbCJNxNYA7uPgRCqEU[] = {
/* columns rows colors chars-per-pixel */
"32 32 124 2 ",
"   c #251E0B",
".  c #291E0C",
"X  c #362B0F",
"o  c #302A1C",
"O  c #39311A",
"+  c #3F3720",
"@  c #473715",
"#  c #493615",
"$  c #4B3917",
"%  c #4F3B19",
"&  c #543E17",
"*  c #533D18",
"=  c #4D3F24",
"-  c #5E451A",
";  c #674C1D",
":  c #684D1E",
">  c #67501E",
",  c #6A501F",
"<  c #71561F",
"1  c #46402A",
"2  c #554732",
"3  c #544C39",
"4  c #575036",
"5  c #5A5337",
"6  c #5A533C",
"7  c #675120",
"8  c #685127",
"9  c #705520",
"0  c #7D5D24",
"q  c #6F603F",
"w  c #71613F",
"e  c #444444",
"r  c #494947",
"t  c #494748",
"y  c #494948",
"u  c #5B5241",
"i  c #52534B",
"p  c #555650",
"a  c #5E5E54",
"s  c #695D47",
"d  c #635C53",
"f  c #6C6048",
"g  c #756F4D",
"h  c #67675B",
"j  c #69695D",
"k  c #777350",
"l  c #787250",
"z  c #7F7955",
"x  c #6B6B6B",
"c  c #7A7967",
"v  c #727273",
"b  c #78787A",
"n  c #866727",
"m  c #896727",
"M  c #8A6828",
"N  c #867A54",
"B  c #858062",
"V  c #888365",
"C  c #85836F",
"Z  c #9B946A",
"A  c #898772",
"S  c #8B8974",
"D  c #908E79",
"F  c #AAA77E",
"G  c #B2AB7F",
"H  c #828382",
"J  c gray54",
"K  c gray59",
"L  c #A5A283",
"P  c #A8A584",
"I  c #A5A488",
"U  c #B3AE82",
"Y  c #B1AF88",
"T  c #B4B186",
"R  c #BAB586",
"E  c #B6B189",
"W  c #BAB68C",
"Q  c #BEBB8B",
"!  c #B9B790",
"~  c #BDBB93",
"^  c #BEBB9A",
"/  c #C1BC8D",
"(  c #C2BF92",
")  c #C5C294",
"_  c #C8C397",
"`  c #C6C398",
"'  c #CAC79C",
"]  c #CCC99E",
"[  c #CCC6A2",
"{  c #CECBA0",
"}  c #D1CEA3",
"|  c #D3D0A7",
" . c #D6D2AB",
".. c #D8D4AE",
"X. c #DBD5B1",
"o. c #DAD6B0",
"O. c #DAD6B1",
"+. c #DBD7B1",
"@. c #DBD7B2",
"#. c #DAD7B4",
"$. c #DBD7B4",
"%. c #DBD9B3",
"&. c #DCD8B2",
"*. c #DCD8B3",
"=. c #DEDBB2",
"-. c #DDD9B4",
";. c #DEDAB4",
":. c #DFDBB5",
">. c #DFDBB6",
",. c #DEDCB5",
"<. c #DEDCB6",
"1. c #E0DBB5",
"2. c #E0DCB6",
"3. c #E0DCB7",
"4. c #E1DDB7",
"5. c #E0DCB6",
"6. c #E0DCB9",
"7. c #E0DDBA",
"8. c #E1DEBB",
"9. c #E0DDBC",
"0. c #E2DFBC",
"q. c #E0DDBA",
"w. c #E2E2BE",
"e. c #E4E1BE",
/* pixels */
"Q Q Q Q ) ) | | ` ` ( ( ) ) ` _ 7.9.) ` | | ....-.-.Q Q / Q Q Q ",
"Q Q Q Q ) ) | | ` ` ( ) ) ) _ _ 9.7.) ) | | ....*.-.Q Q Q Q / Q ",
"*.-.] ] ] ' ....) ) ( ( / / ` ` 7.7.} } ) R # # @ # # # # W -.*.",
"*.*.] ] ' ' ....) ) ) / / / ` ` $.$._ ' ( U % $ $ # # $ % E ..*.",
"Q Q | | o.o.] ] Q Q ( ( ) ) ,.-.# # # # # * m 0 : : : 0 m X . ] ",
"/ Q | | o.o.] ] Q Q ) ( G U ` [ & * % % & - 0 < - - - 9 0 = + ] ",
"R R ( ) } } ) ) ) ) ( ( # # # # m M : > m 0 . . . . . . . F ) ) ",
"R R ( ( } } ) ) ) ) Z Z 2 2 * * : , & * : 7 6 5 5 1 o 3 4 U ) ) ",
"Q Q ) ) ] ] ( ( ) ) # # x x ; : . . . . . O ) ) ] S e I -.-.} } ",
"Q Q ) ) ] ] ( ( N N 6 u H H s f V B k g l z ) Y C A D ^ 1.-.} } ",
"....{ { } } o.o.# # x x K K x x 3.-.Q Q Q / ' L e C -.3.| | o.o.",
"....{ { { } w q d d J J b b P P 3.3.Q Q Q T h c P ! 7.,.| | o.o.",
"o.o.*.*.-.-.# # x x K K x x ) ) } } -.-.) W e j 3.3.] ] _ ) _ _ ",
"o.o.*.*.-.-.# # 8 8 v v T T ) ) } } -.o.i a ~ ~ 3.3.] { ) ) _ _ ",
"/ / ) ( { { # # : : x x R W Q Q ) ) ..| e p -.-.' ' ) ) / Q Q Q ",
"/ / ( ( * % m n . . R R R R Q Q ) ) r y o.o.1.-.] ' ) ) Q / Q Q ",
"/ / ) ) # # m m . . ` ` ( ( ) ) o.o.e e / / *.*.Q Q Q Q R R Q Q ",
"/ / ) ) # # ; ; . . ` ` ( ( ) ) e t { { / / -.*.Q Q Q Q R R Q Q ",
"/ / ) ) # # : : . . o.o.*.*.*.%.e e Q Q R R ` ` | | _ ) ) ) | | ",
"/ / ) ) # # M M . . o.o.*.*.e y | | Q / R R ` ` | | ) ) ) ) | | ",
"..| ....# # m m . . ] ] _ _ e e o.o._ _ Q / ' ' ........| | } } ",
"| | # # M M   . { { ' ' e e ] ' o.o.' ' Q / ] ' .... ...| | } } ",
"Q Q # # m m . . ) ) ) _ e e _ ) } } o.o.....} } } } Q Q Q Q ) ) ",
"Q Q # # : : . . ) ) e e ) ) ) ` } } o.o.o...} } } } Q Q Q Q ) ) ",
"' ' # # : : . . | | e e ' ' ' ' ....7.7.*.*.....) ) Q Q ) ) ' ' ",
"' ' # # : : . . e e ' ' ' ' ' _ ....7.7.*.*.....) ) Q Q ) ) ' ' ",
"| | # # : : . . e e o.o.} } { { -.-.Q Q ( ( -.-.| | ....| | } } ",
"| | # # m m . . w.e.o.o.} } { { 1.-.Q Q ( ( -.-.| | ......| } } ",
"o.o.# # m m . . *.*.o.o.-.3.9.7.Q Q / / ' ' ' ' o.o.1.1.7.7.-.-.",
"o.o.-.-.. . | | *.*.o.o.-.-.7.7.Q / / / ' ' ' ' o.o.-.-.7.7.-.-.",
"( ) ( ( . . 7.7.] ] ) ) ) ) -.-./ Q W R ) ) ) ) | | 7.7._ ) / / ",
"( ( ( ( / Q 7.7.{ ] ) ) _ ` 3.1.Q Q R R ) ) ) ) | | 7.7._ ) / / "
};
