/* XPM */
static char *_bac3dc8984846bc95f193470d3c43380a3n2ZWMLFM72xms[] = {
/* columns rows colors chars-per-pixel */
"32 32 219 2 ",
"   c #161817",
".  c #191917",
"X  c #181818",
"o  c #191919",
"O  c #1A1819",
"+  c #181A19",
"@  c #1A1A18",
"#  c #18181A",
"$  c #19191B",
"%  c #191B1A",
"&  c #191A1C",
"*  c #182120",
"=  c #1A2020",
"-  c #192322",
";  c #1A2423",
":  c #192324",
">  c #192525",
",  c #2D2D2B",
"<  c #2D2B2C",
"1  c #2C2C2C",
"2  c #2D2D2D",
"3  c #2E2C2D",
"4  c #2D2D2F",
"5  c gray18",
"6  c #2E302F",
"7  c #2D3130",
"8  c #2C3031",
"9  c #2F3130",
"0  c #2C3232",
"q  c #2D3333",
"w  c #2A3936",
"e  c #2A3838",
"r  c #2C3B38",
"t  c #1A6055",
"y  c #1C6055",
"u  c #1C6659",
"i  c #1D665B",
"p  c #23675A",
"a  c #256D61",
"s  c #256F62",
"d  c #555442",
"f  c #565543",
"g  c #545245",
"h  c #555346",
"j  c #595846",
"k  c #575548",
"l  c #5A5849",
"z  c #1E8975",
"x  c #1F8975",
"c  c #1D8A75",
"v  c #1C8976",
"b  c #1F8877",
"n  c #1E8977",
"m  c #1D8A77",
"M  c #1F8A76",
"N  c #1F8A78",
"B  c #1E8B78",
"V  c #1F8A7A",
"C  c #208978",
"Z  c #208B79",
"A  c #20897A",
"S  c #22A088",
"D  c #22A08A",
"F  c #25AF96",
"G  c #26AE96",
"H  c #33EBC7",
"J  c #32EAC8",
"K  c #32EBC9",
"L  c #33EBC9",
"P  c #32E9CA",
"I  c #32E9CB",
"U  c #31EACA",
"Y  c #33EACB",
"T  c #32EBCB",
"R  c #34E9C8",
"E  c #34E9CA",
"W  c #35EACB",
"Q  c #30ECCB",
"!  c #34ECCA",
"~  c #33EACC",
"^  c #35E9CC",
"/  c #34EBCC",
"(  c #34EBCD",
")  c #33ECCC",
"_  c #AFAC81",
"`  c #B2AF82",
"'  c #B1AD87",
"]  c #B4B081",
"[  c #B3B085",
"{  c #B2B087",
"}  c #B5B184",
"|  c #B6B48B",
" . c #B7B38D",
".. c #B7B58C",
"X. c #BBB68E",
"o. c #BBB989",
"O. c #BDB98A",
"+. c #BCBA8A",
"@. c #BDBB8A",
"#. c #BDBB8B",
"$. c #BEBA8A",
"%. c #BEBA8B",
"&. c #BFBB8B",
"*. c #BEBC8B",
"=. c #BBB88D",
"-. c #BFBB8C",
";. c #BFBB8E",
":. c #BEBC8C",
">. c #BFBD8D",
",. c #BEBB90",
"<. c #C0B98B",
"1. c #C1BA8C",
"2. c #C0BC8C",
"3. c #C0BC8D",
"4. c #C1BD8E",
"5. c #C0BC8F",
"6. c #C3BC8E",
"7. c #C0BE8E",
"8. c #C2BE8F",
"9. c #C1BD90",
"0. c #C1BE91",
"q. c #C2BF92",
"w. c #C2BF94",
"e. c #C1BD9A",
"r. c #C2C191",
"t. c #C3C093",
"y. c #C4C093",
"u. c #C6C293",
"i. c #C4C194",
"p. c #C6C295",
"a. c #C4C196",
"s. c #C7C396",
"d. c #C7C497",
"f. c #C9C296",
"g. c #C8C497",
"h. c #C8C696",
"j. c #C7C298",
"k. c #C6C398",
"l. c #C6C39A",
"z. c #C6C599",
"x. c #C6C49B",
"c. c #C4C19E",
"v. c #C5C29F",
"b. c #C7C59E",
"n. c #C9C298",
"m. c #C8C399",
"M. c #C9C699",
"N. c #C9C49A",
"B. c #C8C59A",
"V. c #C9C69B",
"C. c #CAC79C",
"Z. c #CAC79E",
"A. c #CBC89D",
"S. c #CBCA9E",
"D. c #CCC99C",
"F. c #CDC89E",
"G. c #CCC99E",
"H. c #CDCA9F",
"J. c #CFCC9F",
"K. c #C9C5A0",
"L. c #CAC6A1",
"P. c #CECBA0",
"I. c #CFCCA1",
"U. c #CFCCA3",
"Y. c #CECBA8",
"T. c #D0CDA2",
"R. c #D1CEA3",
"E. c #D1CEA5",
"W. c #D1CDA7",
"Q. c #D3CEA6",
"!. c #D2CFA6",
"~. c #D3CFA9",
"^. c #D3D0A7",
"/. c #D5D2A7",
"(. c #D3D1A8",
"). c #D4D1A8",
"_. c #D5D2A9",
"`. c #D4D0AA",
"'. c #D5D1AB",
"]. c #D6D1AB",
"[. c #D5D3AA",
"{. c #D6D3AA",
"}. c #D5D1AC",
"|. c #D6D2AC",
" X c #D6D2AD",
".X c #D7D3AD",
"XX c #D7D3AE",
"oX c #D8D3AD",
"OX c #D8D4AE",
"+X c #D8D4AF",
"@X c #D9D5AF",
"#X c #D9D5B0",
"$X c #D9D7B0",
"%X c #DAD6B0",
"&X c #DAD6B1",
"*X c #DCD8B3",
"=X c #DDD9B3",
"-X c #DFDCB3",
";X c #DDD9B4",
":X c #DEDAB5",
">X c #DFDBB5",
",X c #DFDBB6",
"<X c #DEDCB5",
"1X c #DFDCB9",
"2X c #E0DBB5",
"3X c #E0DCB6",
"4X c #E1DCB6",
"5X c #E0DEB8",
"6X c #E1DFB9",
"7X c #E0DDBA",
"8X c #E1DEBB",
"9X c #E0DDBC",
"0X c #E2DFBC",
"qX c #ADF7EA",
"wX c #AEF6EA",
"eX c #FEFEFE",
"rX c #FFFEFF",
"tX c #FEFFFF",
"yX c white",
/* pixels */
"-.-.-.$.a.a././.k.k.t.q.a.a.B.g.7X9Xa.a.^.^.@X@X>X2X$.$.3.-.-.$.",
"-.-.-.-.t.a._._.k.k.y.q.a.t.d.B.9X7Xa.f.^.^.@X@X3X>X$.:.-.-.$.-.",
"*X*XF.F.A.C..X2 2 2 2 g 3.3.k.x.7X9XT.T.k 2 2 2 2 >XU.U.^.^.>X*X",
"*X*XF.F.C.C..X2 2 2 , g 3.3.k.k.7X7XT.T.g 2 2 2 2 3XU.U.^.^.>X>X",
":.-.b.2 2 2 2 Y Y N n s 2 2 >X>X_._.2 2 G Y Y Y Y 2 2 + + K.F.F.",
"3.-.x.2 2 2 2 Y Y n n s 2 2 >X>X(._.2 2 G Y Y Y Y 2 2 + + K.A.A.",
"] ] ' 7 7 7 7 Y Y n n s 2 2 _._.a.a.2 2 G Y Y ~ Y 6 7 & + [ ,.,.",
"2 2 r Y Y Y W ) Y n N u + + _._.a.g.2 2 G / Y ! Y Y Y N N - + + ",
"2 2 e Y Y Y Y Y Y N n u + + $X$X>X>X2 2 G Y Y Y Y Y Y N N - . + ",
"2 2 w Y Y Y / Y / ~ Y Y Y Y , 2 2 2 Y Y Y / Y Y Y Y Y N N - + + ",
"2 2 w Y Y Y Y Y Y Y ~ Y W Y 2 , 2 < Y Y Y Y Y Y Y Y Y N N - + + ",
"2 2 7 n n Y ~ eXeXeXeXwXY Y Y Y Y Y Y Y Y Y H Y / N b C N - + + ",
"2 2 7 n n Y Y eXeXeXeXwXY Y Y Y Y W Y Y Y Y Y Y Y n C n n - + + ",
"$X$XY.2 2 / Q eXeXY Y Y Y Y Y Y Y Y Y Y Y Y Y n N N N + + X.B.g.",
"3.3.| 2 < Y Y eXeXY Y Y Y Y Y Y Y Y Y Y Y / Y n N N N + + [ $.*.",
"3.3.| + + N N Y Y Y Y Y Y / Y Y Y Y Y Y Y Y Y N n n N + + } $.$.",
"3.3...+ + n N Y Y Y Y Y Y Y Y Y Y Y Y Y Y Y Y N N n N + + _ 1.$.",
"3.3.=.j l p p Y Y Y Y Y Y Y Y Y Y W Y W Y Y Y N n y t f f ` $.-.",
"3.:.a.a.W.2 2 Y / Y Y Y Y Y Y Y Y Y Y Y Y Y W N n + + a.m.a.W.W.",
"3.-.t.t.W.2 2 Y Y Y Y Y Y Y Y / Y Y Y Y Y Y / n N + + a.a.y.^.W.",
"_._..X.X$X+ + / Y Y Y Y Y Y Y Y Y Y Y Y D N C N C + + .X_._.U.U.",
"_..X.X.X$X+ + Y Y Y W Y W / Y Y Y Y Y Y D N N N N + + .X_._.U.U.",
"-.-.A.F.oX  + n N Y Y ~ Y / Y Y Y Y n N N N N N N + + -.-.-.t.t.",
"-.$.A.A..X+ + n n Y / Y Y Y Y Y Y Y n n n N N N N + + $.$.$.t.t.",
"C.C.P.P.T.+ + n n n n n n N N n N N n N n N N C N + + <.t.t.B.C.",
"C.C.P.F.U.+ + n n N N N N N N N N n N N N n N N N + + -.t.t.C.B.",
"(._.T.T.>X>X7X+ + N N n N C n N N n C N N n n + + _..X.X_._.U.J.",
"_.~.U.U.2X*X7X+ + n N n n N N N n N N N N N N + + _.@X@X_._.T.T.",
"$X$X>X>Xq.q._.e.v.- - - - - ; : - - > - - - ;  .v.$X-X<X7X7X>X>X",
"$X$X-X>Xq.q._._.*X+ + + + + + + + + + + + + + A.$X$X>X>X1X1X>X>X",
"q.q.q.q.1.-.7X1XF.+ + + + + . + + + + + + + + t._._.1X9Xk.k.3.3.",
"q.w.w.q.3.-.7X7XF.F.a.a.m.a.>X>X3.-.o.o.a.a.a.a._..X7X7Xm.m.q.3."
};
