/* XPM */
static char *b1274a577d2047cf8acb860f56f6c5d5HLVhk9PPyN4oYPE8[] = {
/* columns rows colors chars-per-pixel */
"32 32 252 2 ",
"   c #241B0A",
".  c #231C0A",
"X  c #261E0B",
"o  c #231C0C",
"O  c #271F0C",
"+  c #271E0D",
"@  c #291E0A",
"#  c #2B1E0B",
"$  c #2A1F0B",
"%  c #291D0D",
"&  c #2A1D0C",
"*  c #291E0C",
"=  c #07241F",
"-  c #08261E",
";  c #0D241E",
":  c #0E251F",
">  c #2B200C",
",  c #072620",
"<  c #082520",
"1  c #092621",
"2  c #082721",
"3  c #092622",
"4  c #082722",
"5  c #092624",
"6  c #092822",
"7  c #092823",
"8  c #092924",
"9  c #0C2D26",
"0  c #092C28",
"q  c #0D3B31",
"w  c #0F3A31",
"e  c #0D3F36",
"r  c #0F3E36",
"t  c #2A3F36",
"y  c #4A320E",
"u  c #433312",
"i  c #443413",
"p  c #473414",
"a  c #493713",
"s  c #4C3412",
"d  c #483515",
"f  c #493615",
"g  c #4A3615",
"h  c #4A3516",
"j  c #493616",
"k  c #4B3716",
"l  c #4A3814",
"z  c #4B3817",
"x  c #4C3817",
"c  c #0E4037",
"v  c #0E4138",
"b  c #294134",
"n  c #2B4135",
"m  c #2B4037",
"M  c #2B4336",
"N  c #2C4339",
"B  c #2D4538",
"V  c #2F463C",
"C  c #544119",
"Z  c #5F461D",
"A  c #60471E",
"S  c #664B1C",
"D  c #674C1D",
"F  c #684E1D",
"G  c #684D1E",
"H  c #694D1E",
"J  c #694F1E",
"K  c #6A501F",
"L  c #464322",
"P  c #454626",
"I  c #6E5220",
"U  c #705220",
"Y  c #13574A",
"T  c #12584D",
"R  c #645D41",
"E  c #675F48",
"W  c #5A745B",
"Q  c #5B755C",
"!  c #746643",
"~  c #746544",
"^  c #706A48",
"/  c #726C4C",
"(  c #736D4D",
")  c #886626",
"_  c #896626",
"`  c #896727",
"'  c #8A6727",
"]  c #896728",
"[  c #8B6828",
"{  c #8C6B28",
"}  c #837751",
"|  c #847651",
" . c #82825C",
".. c #8F885C",
"X. c #938A61",
"o. c #928C72",
"O. c #938D73",
"+. c #9F9572",
"@. c #A19D7A",
"#. c #A6A77D",
"$. c #33A88B",
"%. c #25B399",
"&. c #26B298",
"*. c #27B398",
"=. c #27B399",
"-. c #27B29B",
";. c #28BB9F",
":. c #28BAA3",
">. c #2BBFA5",
",. c #2BC0A3",
"<. c #2BC6A7",
"1. c #2BC5A9",
"2. c #29C6AB",
"3. c #2AC7AC",
"4. c #2BC7AF",
"5. c #29C8AC",
"6. c #2BC8AD",
"7. c #2CCBAF",
"8. c #31E0C3",
"9. c #33EACB",
"0. c #33EFCE",
"q. c #33F0D0",
"w. c #A6A181",
"e. c #B9B586",
"r. c #B9B787",
"t. c #BAB686",
"y. c #BAB687",
"u. c #BAB887",
"i. c #BBB788",
"p. c #BAB78A",
"a. c #BAB888",
"s. c #BBB988",
"d. c #BBB989",
"f. c #BDB98A",
"g. c #BDBB8A",
"h. c #BDBB8B",
"j. c #BEBA8B",
"k. c #BEBC8B",
"l. c #BFBB8C",
"z. c #BEBC8C",
"x. c #BFBD8D",
"c. c #BCBD9B",
"v. c #BBBF9C",
"b. c #BEBF9F",
"n. c #C1BA8C",
"m. c #C0BC8D",
"M. c #C1BD8D",
"N. c #C1BD8E",
"B. c #C0BE8E",
"V. c #C0BF8F",
"C. c #C0BD90",
"Z. c #C1BD90",
"A. c #C2BF92",
"S. c #C3BF92",
"D. c #C2C090",
"F. c #C3C093",
"G. c #C2C193",
"H. c #C5C192",
"J. c #C4C292",
"K. c #C3C294",
"L. c #C4C194",
"P. c #C5C194",
"I. c #C7C394",
"U. c #C6C396",
"Y. c #C7C396",
"T. c #C8C497",
"R. c #C6C398",
"E. c #C7C499",
"W. c #C6C599",
"Q. c #C8C399",
"!. c #C8C598",
"~. c #C9C49A",
"^. c #C8C59A",
"/. c #C9C69B",
"(. c #C8C69D",
"). c #CBC69C",
"_. c #CAC79C",
"`. c #CBC89D",
"'. c #CCC99E",
"]. c #CDCA9F",
"[. c #CECB9E",
"{. c #C2C3A3",
"}. c #C1C5A4",
"|. c #CBC7A2",
" X c #CCC9A0",
".X c #CFCAA0",
"XX c #CECBA0",
"oX c #CDCCA0",
"OX c #CFCCA1",
"+X c #CECDA1",
"@X c #CDCBA4",
"#X c #CFCDA4",
"$X c #D0CDA0",
"%X c #D1CCA2",
"&X c #D0CDA2",
"*X c #D0CDA4",
"=X c #D1CEA5",
"-X c #D1CFA6",
";X c #D2CFA6",
":X c #D3CFA9",
">X c #D2D1A5",
",X c #D2D0A7",
"<X c #D3D0A7",
"1X c #D2D0AA",
"2X c #D5D0A8",
"3X c #D4D1A8",
"4X c #D4D2A9",
"5X c #D5D2A9",
"6X c #D6D3A8",
"7X c #D5D1AB",
"8X c #D6D3AA",
"9X c #D7D4AB",
"0X c #D6D2AC",
"qX c #D7D3AD",
"wX c #D7D3AE",
"eX c #D7D5AF",
"rX c #D8D5AC",
"tX c #D8D4AE",
"yX c #D9D5AF",
"uX c #DAD5AF",
"iX c #DAD7AE",
"pX c #DBD5B1",
"aX c #D9D7B1",
"sX c #DAD6B0",
"dX c #DAD6B1",
"fX c #DBD7B1",
"gX c #DBD7B2",
"hX c #DDD7B3",
"jX c #DBD7B4",
"kX c #DCD8B2",
"lX c #DCD8B3",
"zX c #DDD9B3",
"xX c #DFDCB3",
"cX c #DDD9B4",
"vX c #DCD8B5",
"bX c #DEDAB4",
"nX c #DFDAB4",
"mX c #DEDAB5",
"MX c #DFDBB5",
"NX c #DFDBB6",
"BX c #DFDCB9",
"VX c #DEDEBA",
"CX c #E0DBB5",
"ZX c #E0DCB6",
"AX c #E0DCB7",
"SX c #E0DEB8",
"DX c #E0DDBA",
"FX c #E1DEBB",
"GX c #E0DDBC",
"HX c #E2DFBC",
"JX c #E2E2BE",
"KX c #E4E1BE",
/* pixels */
"l.l.l.l.L.D.3X3XL.R.A.A.L.L.E.T.GXGXL.L.<X<XtXtXcXcXj.j.l.l.l.m.",
"l.l.l.l.L.L.3X3XR.R.A.A.L.L.Q.~.GXDXL.L.3X<XtXtXcXcXj.z.j.l.l.l.",
"lXcX'.'.`._.qXqXL.J.A.e e c e e e e e e e v J.L.MXcXoXoX<X<XcXlX",
"lXlX'.'._._.qXqXD.J.m.e e e e e e e c e e v J.L.MXcX&XoX<X<XcXhX",
"l.l.<X<XsXsX`.'.Q e w 9.9.3.3.=.=.=.=.;.3.7.e e g a G G ;X3X'.'.",
"m.l.3X<XsXsX'.'.W e w 9.9.3.3.=.=.=.=.:.3.7.e e g g G G ;X3X'.'.",
"t.t.A.D.;X;XD.L.L.D.D.e e = < = = = = Y =.=.=.=.` ` * * A.L.L.J.",
"t.t.A.A.;X;XD.L.L.D.A.e e , < = < - < T =.=.=.=.` ] * O A.L.L.J.",
"l.l.L.L.'.'.A.A.Q.L.cX}.v.c.v.v.{.{.#. .P L 2.<.$.$.: : aXMX#X&X",
"l.l.L.L.XX'.A.A.L.L.cXcXqX9XsXsXAXcXj.X.g y 3.2.=.=.< < sXcX&X&X",
"tXtXXXXX&X&XsXsXcXAX;X;Xi.a.m.l.AXeXt...g s >.,.=.=.0 9 |.@X1XsX",
"tXtXXX'.&X&XsXsXAXcX;X;Xa.t.m.l.AXg g C G K * # =.=.6.3.7 < V sX",
"sXsXlXlXcXcX3X3X~.~.R.E.l.l.L.L.&Xx g C G K * * =.=.3.3.< < m ~.",
"sXsXlXlXxXcX3X3X~.~.R.R.l.m.K.g g ` ` S * # _._.< < =.=.< < m ~.",
"m.m.A.A.XXXXcXcXA.A.t.a.a.a.l.g g [ ` D * # cXcX< < =.=.5 < t k.",
"m.m.A.A.XXXXcXcXA.A.a.a.a.g g G G X * E CXcXcXAX< < =.=.< < m j.",
"m.m.L.L.R.R.sXsXD.D.R.E.A.g a G G X * R m.m.lXcX< < =.=.< < m z.",
"m.m.L.L.R.R.sXsXD.D.R.z z [ [ X X sXXXXXm.z.sXlX< < 3.6.7 < m l.",
"m.m.L.L.;X;X:X;XtXtXsXz g ` ` * * 3Xl.l.u.a.R.R.< < 3.3.7 < N <X",
"m.m.K.D.;X;X<X<X+.! ~ Z A i i w.@.3Xl.m.a.a.R.R.= < 8.8.7 , B :X",
"3X3XqXqXsXsXcXcX| g g D G * * _.sXsX~.~.j.m._._.< < 9.9.7 < B ;X",
"3XqXqXqXsXsXcXlX} g p G G > # _.sXsX_._.l.m._._.< , q.0.8 , m &X",
"z.m.'.'.qXqXz g I ` { * * L.L.L.;X;XsXsXtXtX&X&X;X;X< < a.j.K.L.",
"l.l.'.'.qX9Xz g U ` { * # L.L.L.;X;XsXsXtXtX&X&X;X;X- < a.n.L.L.",
"~._.XXoXa g K G u * # _._._._.~.qXqXDXDXlXlXtXqXL.L.l.z.L.L._._.",
"_._.XXXXg g G G u * # _._._._._.qXqXDXDXlXlXtXqXL.L.l.l.L.L._._.",
"3X3Xa g ` ` o * o.JXsXsX&X&XoXoXcXcXl.l.A.A.cXcX3X3XtXtX9X9X&X&X",
"3X3Xg g ` ` . * o.KXsXsX&X&XoXoXCXcXl.l.A.A.cXcX3X3XtXtXqX9X&X&X",
"sXsXX X     3X3XlXlXsXlXcXcXDXDXl.l.m.m._._._._.sXsXCXCXDXDXcXcX",
"tXsXO * * * 3X3XlXlXjXsXcXcXDXGXl.m.n.m._._._._.sXsXcXcXDXDXcXcX",
"A.A.( ( ( ^ DXDX'.'.J.L.L.L.cXcXn.l.i.a.D.L.L.L.3X3XDXDXL.L.m.m.",
"A.A.A.A.l.l.DXVX'.'.L.K.L.L.cXAXl.l.a.a.L.L.L.L.3X3XDXDXL.L.m.m."
};
