/* XPM */
static char *dbb2f9c3a8a244a3f648a92f442a2857oNcFS7HjDQx5ZPxT[] = {
/* columns rows colors chars-per-pixel */
"32 32 119 2 ",
"   c #041E1B",
".  c #271F0C",
"X  c #291E0C",
"o  c #06231F",
"O  c #09231D",
"+  c #072620",
"@  c #092521",
"#  c #072923",
"$  c #092A23",
"%  c #082C28",
"&  c #0C332B",
"*  c #0A392F",
"=  c #14332B",
"-  c #0C3C33",
";  c #103F36",
":  c #233B33",
">  c #4A3616",
",  c #4F3816",
"<  c #503E16",
"1  c #0E4035",
"2  c #0F4138",
"3  c #0C4B3D",
"4  c #134237",
"5  c #104239",
"6  c #1A483B",
"7  c #30463A",
"8  c #5E4819",
"9  c #62471A",
"0  c #694E1E",
"q  c #484029",
"w  c #564323",
"e  c #644F22",
"r  c #625020",
"t  c #7B6128",
"y  c #1E4C41",
"u  c #0F584F",
"i  c #135A4F",
"p  c #1E5E4E",
"a  c #175F53",
"s  c #265142",
"d  c #295345",
"f  c #33594A",
"g  c #245C53",
"h  c #285E51",
"j  c #156457",
"k  c #186555",
"l  c #166458",
"z  c #3A6047",
"x  c #3C614B",
"c  c #4B5D4A",
"v  c #427F77",
"b  c #8A6727",
"n  c #1F8A76",
"m  c #1D8B79",
"M  c #49807A",
"N  c #829170",
"B  c #92967D",
"V  c #9BA278",
"C  c #1FA38E",
"Z  c #25A48C",
"A  c #2CA390",
"S  c #39A291",
"D  c #32BFA6",
"F  c #29C4A5",
"G  c #2AC7AA",
"H  c #2BC9AD",
"J  c #31C7AC",
"K  c #31C6B0",
"L  c #2AD1B3",
"P  c #2FD3BA",
"I  c #31E3C3",
"U  c #33EBCB",
"Y  c #39ECCE",
"T  c #40EACF",
"R  c #6AE2D6",
"E  c #77E7D7",
"W  c #ACA382",
"Q  c #A3A88A",
"!  c #A9B18C",
"~  c #B7B686",
"^  c #B9B686",
"/  c #BAB887",
"(  c #BBB788",
")  c #BEBB8B",
"_  c #AEB395",
"`  c #BCBC99",
"'  c #C1BC8D",
"]  c #C2BF92",
"[  c #C5C294",
"{  c #C8C497",
"}  c #C6C399",
"|  c #CAC79C",
" . c #CCC99E",
".. c #CECCA1",
"X. c #D1CEA4",
"o. c #D2CEA9",
"O. c #D3D0A7",
"+. c #D6D2AA",
"@. c #D8D4AE",
"#. c #DAD6B1",
"$. c #DEDAB4",
"%. c #DFDBB8",
"&. c #E0DCB6",
"*. c #E2DFBC",
"=. c #E0DDBA",
"-. c #E4E1BE",
";. c #92D5CE",
":. c #92D4D0",
">. c #91F2E7",
",. c #A0EDE7",
"<. c #A3FBED",
"1. c #A5FBEE",
"2. c #A5FDED",
"3. c #A4FCEE",
"4. c #A5FDEF",
"5. c #A5FBF0",
"6. c #A3FDF3",
"7. c #A6FCF1",
"8. c #A8F9F3",
/* pixels */
") ) ) ) [ [ +.+.} } ] ] [ [ { { =.=.[ [ O.o.@.@.$.&.) ) ) ) ' ) ",
") ) ) ) [ [ +.+.} } ] ] [ [ { { =.=.[ [ +.O.@.@.$.$.) ) ) ) ) ) ",
"$.$. . .| | @.@.[ [ ] ] ' ' [ } =.=...X.{ [ [ [ $.$.....O.O.$.$.",
"$.$. . .| | @.@.[ [ ] ' ' ' } } =.=.X.X.[ [ [ [ d d s s d O.$.$.",
") ) O.O.#.#. . .) ) ] ] [ [ &.$.+.+.| | ' ' ] ) - - * 1 1 +. . .",
") ) O.O.#.#. . .) ) [ ] [ [ $.$.+.+.| { ' ' N 1 <.3.3.= @ +. . .",
"^ ^ ] [ X.X.[ [ [ [ ] ] $.$.+.+.[ [ [ [ ) 6 M ,.J J 3.= @ [ [ [ ",
"^ ^ ] ] X.X.[ [ [ [ ] ] &.$.+.+.[ { [ [ ) 1 v 3.G G 3.= @ [ [ [ ",
"' ) [ [  . .] ] [ [ $.$.@.@.#.#.$.$.) 4 5 3.E G 1.7.O ` $.$...X.",
"' ) [ [  . .] ] [ [ $.$.@.@.#.#.$.$.V h g >.R H ;.:.7 } $.&...X.",
"@.@.....X.X.#.#.$.$.X.X./ / ) ) $.$.1 8.5.H P U @ + $.$.+.+.#.#.",
"@.@.....X.X.#.#.$.%.X.X./ / ) ) 4 - 5.F G U Z O | | $.$.+.+.#.#.",
"#.#.$.$.$.$.o.o.} } [ } ) ) [ ] - - 6.G H U A $ $.$. . .[ [ { | ",
"#.#.$.$.$.&.y 1 1 f } } ' ) x 1 U U G U U O c | $.$. . .[ [ { { ",
"' ' ] ] ....y 1 i p z ^ ^ z S D L L I u i Q ` $.| | [ [ ' ' ) ) ",
"' ' ] ] ....y 1 j a 1 ~ ^ 1 D U G G U O @ $.$.$. .| [ [ ) ' ) ) ",
"' ' [ [ } } #.@.; 3 m @ @ U Z n U Y @ | ' ' $.$.) ) ) ) / / ) ) ",
"' ' [ [ } } #.#.1 3 m o o Y C m Y T @ | ' ' $.$.) ) ) ) / / ) ) ",
"' ' [ [ X.X.X.X.1 3 m m m j K U @ @ ' ) / / } [ +.+.[ [ [ [ O.O.",
"' ' [ [ X.X.X.X.o._ - j l ; #   ....) ) / / } [ +.+.[ [ [ [ O.O.",
"+.+.@.@.#.#.&.$. .! ; k j 1 % @ @.@.| | ) ) | | @.@.@.@.+.+.X.X.",
"+.+.@.@.#.#.$.$.> , 0 + @ 1 1 1 @ @ | | ) ' |  .@.@.+.@.+.+.X.X.",
"' )  . .@.@.W W 9 8 < c c & & & & & B #.@.@...X.X.X.) ) ) ) [ [ ",
") )  . .@.@.w > b t X [ [ + @ @ 1 1 @ +.@.@.X.X.X.X.) ) ) ) [ [ ",
"| | ..d 1 2 r 0 . q | | | | | | @ @ @ #.$.$.@.@.[ [ ) ) [ [ |  .",
"| | ..d 1 1 e 0 X q | | | | | | @ @ @ #.$.$.@.@.[ [ ) ) [ [ | | ",
"+.+.X.s - l @ @ -.-.#.#.X.X. ...$.$.) ) ] [ $.$.O.+.@.@.+.+.X.X.",
"+.+.X.: # $ @ @ -.-.#.#.X.X.....$.$.) ) ] [ &.$.+.+.@.@.+.+.X.X.",
"#.#.$.: @ @ @ @ $.$.#.#.$.$.=.=.) ) ) ) | | | | #.#.&.&.=.=.$.$.",
"#.#.$.$.] ] +.+.$.$.#.#.$.$.=.=.) ) ) ) | |  .| #.#.$.$.=.=.$.$.",
"] ] ] [ ) ) =.=. . .[ [ [ [ $.$.' ) ( / [ [ [ [ +.+.=.=.[ [ ' ' ",
"[ ] [ ] ) ) =.=. . .[ [ [ [ $.&.) ) / ( [ [ [ [ @.+.=.=.[ [ ' ' "
};
