/* XPM */
static char *enderportal1746027678[] = {
/* columns rows colors chars-per-pixel */
"32 32 100 2 ",
"   c #020202",
".  c #0A0A0A",
"X  c #131313",
"o  c gray12",
"O  c #1F3A34",
"+  c #1E3A39",
"@  c #202020",
"#  c #2B2B2B",
"$  c #223C35",
"%  c #223E3A",
"&  c #39393B",
"*  c #25433B",
"=  c #28433C",
"-  c #1E4546",
";  c #1D434B",
":  c #224545",
">  c #224549",
",  c #264B4B",
"<  c #2E594F",
"1  c #31594E",
"2  c #2F5755",
"3  c #2F5854",
"4  c #2E5759",
"5  c #2B585B",
"6  c #305656",
"7  c #315A54",
"8  c #325C59",
"9  c #346457",
"0  c #386456",
"q  c #316855",
"w  c #35635A",
"e  c #39655E",
"r  c #366B5E",
"t  c #3A685E",
"y  c #2B5760",
"u  c #346561",
"i  c #3A6761",
"p  c #366C64",
"a  c #3B6B62",
"s  c #3A6C69",
"d  c #3F7366",
"f  c #3F7269",
"g  c #494949",
"h  c #417366",
"j  c #417368",
"k  c #467A6E",
"l  c #487A6E",
"z  c #4B7D72",
"x  c #4E8775",
"c  c #4D8976",
"v  c #4D8979",
"b  c #518773",
"n  c #528874",
"m  c #A5A66D",
"M  c #ABA56E",
"N  c #ACAB6F",
"B  c #B1A86E",
"V  c #ABA671",
"C  c #ACAB73",
"Z  c #B2AD75",
"A  c #B8AB74",
"S  c #B3AD79",
"D  c #AFB074",
"F  c #BAB677",
"G  c #B5B47C",
"H  c #BBB67B",
"J  c #B5B97E",
"K  c #BCB97B",
"L  c #B7B781",
"P  c #B6B981",
"I  c #97C28D",
"U  c #9AC68E",
"Y  c #99C98D",
"T  c #97C693",
"R  c #9AC693",
"E  c #9BC891",
"W  c #9CC698",
"Q  c #BEC485",
"!  c #BEC389",
"~  c #C2C186",
"^  c #C3C28A",
"/  c #C1C391",
"(  c #DDDAA4",
")  c #DFDEA9",
"_  c #DFE0A7",
"`  c #DEE1AA",
"'  c #E3E1AD",
"]  c #E5E4B0",
"[  c #E9E6B1",
"{  c #EBECB4",
"}  c #ECEFB8",
"|  c #ECF1B7",
" . c #EDF2B9",
".. c #FCF7BD",
"X. c #F3F8BE",
"o. c #F9F8BF",
"O. c #F4F9C2",
"+. c #F9F9C5",
"@. c #F7FAC8",
"#. c #F8FAC9",
/* pixels */
"h j h j h h h j h j j h h j h h h h h h j h h h h h d j a i i i ",
"h h h h h h h h h h j d j h h j h h j h d h h h h h h d a i i t ",
"h j Y R : > : > > > T R F H > : 6 6 H H T R > > : > , > W U i i ",
"h j R R : > > : : : R T J K : : 3 3 K G R R > : : > : : R R u i ",
"h h , , ; ; C C C B x x h h J J +.+.n b j h A Z D C 3 3 7 7 t i ",
"j h , , ; ; N N Z B v v h j K K O.+.v b j j S G S G 5 4 3 3 i i ",
"h h : : m M { {  .} +.+.b b h d w w w 0 ] ' +.+.` ' ~ ! 3 2 t t ",
"h h > : m M { {  .} +.#.b b h d w w w 0 ] ' +.+.' ' ~ ! 3 6 t i ",
"h h : > D S @.+.: = * * * * % * = * * * + + + + { { J J 6 6 t t ",
"h h > : S S @.@.% = * * * = * $ = * * * O O $ + { { J L 2 2 t t ",
"h h ; : C C ' ' + O       .               # 9 u ] [ L P 2 2 t i ",
"h d > : C C ) ` + O           X             9 u [ [ H L 3 2 t i ",
"l l U R D C ( ( % $       .                 7 8 ) ) S G R R a a ",
"l k I E D G ( ( % *                         9 7 ) ) S G U I s j ",
"h h 8 w C C ' [ : *           .   .         p p ' _ ^ / 6 6 8 8 ",
"h h 8 3 C C ' ' = =       .     .           a p _ _ ^ ^ 7 6 0 e ",
"h h , : M M ( ( * $                         w p ( ( H G 2 2 t t ",
"h h : : m M ( ( % =   .   X           .     r u ( ( G G 3 3 t i ",
"l z T I m N ) ( + %                 &   o . 9 w ] ] ~ ! R I p i ",
"l l T R N N _ ) % %   .       o           . 9 w ] ] P ^ W R i h ",
"h h 8 7 V M { { : *             X .         r s X.X.C C 7 6 e 8 ",
"j h 8 8 V C { { * =     . X     #   g   .   p s X.O.Z C 6 6 8 e ",
"j h - > D S +.O.* * 3 3 < 1 9 w e w r a r d r p ) ' H L 7 6 t t ",
"h h > : D S +.+.: * 3 3 < 1 w w w w d r p p p p ] ) H L 7 6 t t ",
"h h : > m V ' ' +.+.{ } b b h j w w 9 9 X.X.X.O.) ] G G 3 3 i i ",
"h h > : m m ' ' +.+.{  .b b j h w w w 9 X.o.X.o.] ) G G 3 3 t i ",
"h h : - 2 y H H ^ ~ v v j h +...K K w 9 3 4 ^ ~ H L y 4 3 3 i i ",
"j h : : 2 4 G L P ~ x b h h +.+.L P e q 3 3 ^ P L L 4 7 7 7 i i ",
"i i R R 3 3 3 3 6 2 R R K K h h 6 3 B N R R 6 6 3 7 3 3 R R i t ",
"i i E R 3 3 2 3 6 6 R R H K h h 4 3 B Z W I 6 6 2 2 3 3 W U i t ",
"i i i i t t w t t i a a i i i i t i e t e h a a t t i i i i i i ",
"i i i i i i i i e e h p i i i t a t t t h t h a t i u i i i i i "
};
