/* XPM */
static char *d39800dad0ea446fa14b634c3e2c3fd7SOeXS64KiuCCDWKH[] = {
/* columns rows colors chars-per-pixel */
"32 32 106 2 ",
"   c #B9B787",
".  c #BAB686",
"X  c #BAB78A",
"o  c #B9B888",
"O  c #BAB888",
"+  c #BBB989",
"@  c #BCBA8A",
"#  c #BDBB8B",
"$  c #BEBA8A",
"%  c #BEBA8B",
"&  c #BFBB8C",
"*  c #BEBA8D",
"=  c #BFBB8E",
"-  c #BEBC8C",
";  c #C1BA8C",
":  c #C0BC8D",
">  c #C1BD8D",
",  c #C1BD8E",
"<  c #C1BD90",
"1  c #C1BE91",
"2  c #C2BE91",
"3  c #C2BF92",
"4  c #C3BF92",
"5  c #C2BF94",
"6  c #C2C090",
"7  c #C1C092",
"8  c #C3C093",
"9  c #C4C292",
"0  c #C3C095",
"q  c #C3C294",
"w  c #C4C194",
"e  c #C5C194",
"r  c #C5C295",
"t  c #C7C394",
"y  c #C6C295",
"u  c #C4C196",
"i  c #C5C297",
"p  c #C7C396",
"a  c #C7C497",
"s  c #C8C497",
"d  c #C7C298",
"f  c #C6C398",
"g  c #C7C499",
"h  c #C8C598",
"j  c #C8C59A",
"k  c #C9C69B",
"l  c #CBC69C",
"z  c #CAC79C",
"x  c #C9C89A",
"c  c #CBC89D",
"v  c #CCC99E",
"b  c #CDCA9F",
"n  c #CECB9E",
"m  c #CECBA0",
"M  c #CECBA2",
"N  c #CFCCA1",
"B  c #CFCEA2",
"V  c #D0CDA0",
"C  c #D1CCA2",
"Z  c #D0CDA2",
"A  c #D0CDA4",
"S  c #D1CEA5",
"D  c #D1CFA6",
"F  c #D3CEA6",
"G  c #D2CFA6",
"H  c #D3CFA9",
"J  c #D2D0A7",
"K  c #D3D0A7",
"L  c #D4D1A6",
"P  c #D4D1A8",
"I  c #D5D2A9",
"U  c #D6D3A8",
"Y  c #D5D1AB",
"T  c #D7D2AA",
"R  c #D6D3AA",
"E  c #D7D4AB",
"W  c #D6D2AC",
"Q  c #D7D3AD",
"!  c #D8D5AC",
"~  c #D8D4AE",
"^  c #D9D5AF",
"/  c #DAD7AE",
"(  c #DBD8AF",
")  c #D9D5B0",
"_  c #DAD6B0",
"`  c #DAD6B1",
"'  c #DBD7B1",
"]  c #DBD9B3",
"[  c #DCD8B3",
"{  c #DDD9B3",
"}  c #DFDCB3",
"|  c #DDD9B4",
" . c #DEDAB4",
".. c #DFDBB5",
"X. c #DFDBB6",
"o. c #DFDBB8",
"O. c #DFDCB9",
"+. c #DEDEBA",
"@. c #E0DBB5",
"#. c #E0DCB6",
"$. c #E0DCB7",
"%. c #E0DCB9",
"&. c #E0DDBA",
"*. c #E0DDBC",
"=. c #E2DFBC",
"-. c #E4E1BE",
/* pixels */
"& & % & w w I I f g 3 3 w w s s *.*.w w K K ~ ~ ..@.% % & & & & ",
"& & & & w w I I f f 3 3 w w s s *.*.w w K K ~ ~ ....% % & & , & ",
"[ [ c v z z Q Q w w 3 3 , , w g &.&.N Z w s w w ....m m I K [ [ ",
"[ [ v v z z ~ Q w w 3 , , , f f O.&.Z Z w w w w ....m m H K [ [ ",
"& & K K _ _ v c & & 3 5 6 w @...L I k k , , 3 3 m m ..[ I I v v ",
"& & K K _ _ v c & & 6 3 6 w ....I I k a , , 3 3 m m [ [ I I v v ",
". . 3 6 G G 6 6 6 6 3 3 ....I I w w w w & & w s w w ....w w w w ",
". . 3 3 G G 6 6 6 6 3 3 #...I I w w w w & & w w w w } ..w w w w ",
"& & w w v v 3 3 f w ....Q Q _ _ ....% % & & w w v v I I ....Z Z ",
"& & w w v v 3 3 w w #...Q Q _ _ ....% % & & w 9 c v I I ..@.Z Z ",
"~ ~ m m G Z _ _ ....G G O O & & ....& % & & z z v v &...I I _ _ ",
"~ ~ m m Z Z _ _ ....G G O O & & ....& & & & k z v v ..o.I I _ _ ",
"_ _ [ [ ....I I k k f f & % w w Z Z ..#.w p z z ..#.v v w w s k ",
"_ _ [ [ ....I I k k f f & & w w Z Z ....w p z z ....v v w w k k ",
", , 3 3 m m ....3 3 O O O O & & w w Q Q ........z z w w & & % % ",
", , 3 3 m m ....3 0 . O O O & & w w Q Q ........z z w w ; ; % % ",
", , w w f f _ _ 3 3 f f 3 3 w w ~ _ m m , , [ ] % % & & O O & % ",
", , w 9 f f _ _ 3 3 f f 3 3 w w _ _ m m , , [ [ % % & & O O & & ",
", , w w G G G G ~ ~ _ _ [ [ [ [ I I & ; O O f f I I w w w w K K ",
", , w w G G G G ~ ~ _ ' ..[ [ [ I I & & O O f f I I w w w w K K ",
"I I Q ~ _ _ ....m v z z s s z z _ _ k k & & z z Q Q Q Q I I Z Z ",
"I I Q ~ _ _ ....m m z z s s z z _ _ k z & , z z Q Q E Q I I Z Z ",
"& & v v Q Q &.&.w w w p w w w w G G ( _ ~ ~ Z Z G G & & & & w w ",
"& & v v Q Q &.&.w w w w w w w w G G _ _ ~ _ Z Z G G & & & & 0 9 ",
"x z m m Z Z O.O.I I z z z z z z Q Q &.&.[ [ ~ ~ w w & - w w z c ",
"z z m m Z Z O.O.I I z k c z z z Q Q &.&.[ [ ~ ~ w w & & w w z z ",
"I I Z Z ....&.&.-.-._ _ N Z m m ....& & 3 3 #...L I ~ ~ I I Z G ",
"I I Z Z ....&.&.-.-._ _ Z Z m m @...& & 3 3 ....I I ~ ~ I I Z Z ",
"~ _ } ..6 3 I I [ [ _ _ ....&.&.& & & & z z z z _ _ @.@.&.&.....",
"_ _ ....3 3 I I [ [ _ _ ....O.&.& & ; % z z z z _ _ ....&.&.....",
"6 3 3 3 & & &.*.v v w w w w ....; & X O w w w w I I &.*.w w , , ",
"3 3 3 3 & & &.&.v c w w w w ....& & O O w w w w Q I &.&.w w , , "
};
