/* XPM */
static char *_215deffe1934f6aa904034992656471upUtSTnhgquGHA4q[] = {
/* columns rows colors chars-per-pixel */
"32 32 61 1 ",
"  c black",
". c #010000",
"X c #000100",
"o c #010100",
"O c #010101",
"+ c #020100",
"@ c #020001",
"# c #000200",
"$ c #010300",
"% c #000201",
"& c #020200",
"* c #000002",
"= c #000103",
"- c #010103",
"; c #020003",
": c #020202",
"> c #010005",
", c #000105",
"< c #030104",
"1 c #010204",
"2 c #030305",
"3 c #010006",
"4 c #020006",
"5 c #030207",
"6 c #050004",
"7 c #060004",
"8 c #050006",
"9 c gray2",
"0 c #060606",
"q c #010008",
"w c #07000E",
"e c #0A0008",
"r c #0B010C",
"t c #08020E",
"y c #0C000E",
"u c #11010C",
"i c #030013",
"p c #0A0313",
"a c #0C0111",
"s c #0D0212",
"d c #0B0318",
"f c #1A001D",
"g c #1B0C1F",
"h c #1A131A",
"j c #1E022A",
"k c #160B2D",
"l c #240934",
"z c #302B2F",
"x c #3A154B",
"c c #2D1A51",
"v c #29214A",
"b c #4A0347",
"n c #48054A",
"m c #5A0151",
"M c #5A0058",
"N c #4A1354",
"B c #5F1E78",
"V c #742189",
"C c #90098A",
"Z c #D613D9",
"A c #F904F7",
/* pixels */
"               2        6    V  ",
"                                ",
"                                ",
"                                ",
"                   x       2    ",
"                               a",
"       9                        ",
"                      2         ",
"             N        A      v  ",
"    9                           ",
"                                ",
"                                ",
"                   2            ",
"                               h",
"           d            l       ",
"              9         2       ",
"    B                           ",
"                                ",
"                    t           ",
"                                ",
"           C     j             i",
"   2             a              ",
"     e                   Z2     ",
"     M                          ",
"     6                          ",
"                                ",
"          tf                    ",
"       u      z     w           ",
"       m6   c       b2       g  ",
"                                ",
"                         n      ",
"          p    2   k     yq     "
};
