/* XPM */
static char *steve1746027762[] = {
/* columns rows colors chars-per-pixel */
"32 32 196 2 ",
"   c #241808",
".  c #261A0A",
"X  c #261E0B",
"o  c #281D0B",
"O  c #2A1D0D",
"+  c #2B1E0D",
"@  c #2B1E0E",
"#  c #2F1F0F",
"$  c #2F200D",
"%  c #332313",
"&  c #342512",
"*  c #3F2A15",
"=  c #421D0A",
"-  c #40200B",
";  c #41210C",
":  c #45220E",
">  c #422A10",
",  c #6D432A",
"<  c #6F452C",
"1  c #6B4030",
"2  c #7A4E33",
"3  c #6B6B69",
"4  c gray42",
"5  c #6C6A6B",
"6  c #6C6C6C",
"7  c #8A4C3D",
"8  c #805334",
"9  c #805238",
"0  c #815339",
"q  c #83553B",
"w  c #8F5E3E",
"e  c #905E43",
"r  c #965F40",
"t  c #9C6346",
"y  c #9C694C",
"u  c #946E59",
"i  c #956F5A",
"p  c #976E5A",
"a  c #956F5C",
"s  c #9C725C",
"d  c #A26A47",
"f  c #AC765A",
"g  c #A07D67",
"h  c #AA7E65",
"j  c #AA7D66",
"k  c #AB7D66",
"l  c #A87E66",
"z  c #AB7E67",
"x  c #AA7D68",
"c  c #B37B62",
"v  c #B57B67",
"b  c #AD8669",
"n  c #AE846B",
"m  c #AE816E",
"M  c #AD856C",
"N  c #AE866D",
"B  c #B4846D",
"V  c #B6846D",
"C  c #B0886F",
"Z  c #B6896C",
"A  c #BE886C",
"S  c #B78272",
"D  c #BB8972",
"F  c #BD8B72",
"G  c #BD8E72",
"H  c #BD8E74",
"J  c #393187",
"K  c #3A3288",
"L  c #523D88",
"P  c #523D8A",
"I  c #453AA3",
"U  c #463BA3",
"Y  c #473AA4",
"T  c #463BA4",
"R  c #463AA6",
"E  c #453CA5",
"W  c #473CA5",
"Q  c #009898",
"!  c #009999",
"~  c #009A99",
"^  c #00999B",
"/  c #009E9F",
"(  c #009F9F",
")  c #17A29B",
"_  c #019FA0",
"`  c #009EA1",
"'  c #00A8A8",
"]  c #00A9A8",
"[  c #00A8A9",
"{  c #01A9A9",
"}  c #02A8A8",
"|  c #00AFAF",
" . c #1BA6A3",
".. c #1CAEAB",
"X. c #00B0AE",
"o. c #18B1AC",
"O. c #00AFB2",
"+. c #00B0B0",
"@. c #01B1B1",
"#. c #BAB686",
"$. c #BAB888",
"%. c #BDBB8B",
"&. c #BEBA8A",
"*. c #BEBA8B",
"=. c #BFBB8C",
"-. c #BFBB8E",
";. c #BEBC8C",
":. c #C69680",
">. c #C1BA8C",
",. c #C0BC8D",
"<. c #C1BD8D",
"1. c #C1BD8E",
"2. c #C3BC8E",
"3. c #C1BD90",
"4. c #C3BC90",
"5. c #C1BE91",
"6. c #C3BF90",
"7. c #C2BF92",
"8. c #C4BD91",
"9. c #C2BF94",
"0. c #C2C090",
"q. c #C1C092",
"w. c #C3C093",
"e. c #C2C193",
"r. c #C4C292",
"t. c #C3C294",
"y. c #C4C194",
"u. c #C5C194",
"i. c #C5C295",
"p. c #C7C394",
"a. c #C6C295",
"s. c #C4C196",
"d. c #C7C396",
"f. c #C9C296",
"g. c #C8C497",
"h. c #C7C298",
"j. c #C6C398",
"k. c #C7C499",
"l. c #C8C598",
"z. c #C9C69B",
"x. c #CBC69C",
"c. c #CAC79C",
"v. c #CAC79E",
"b. c #C9C89A",
"n. c #C9C89C",
"m. c #CBC89D",
"M. c #CCC99E",
"N. c #CDCA9F",
"B. c #CECBA0",
"V. c #CECBA2",
"C. c #D0CDA0",
"Z. c #D1CCA2",
"A. c #D0CDA2",
"S. c #D0CDA4",
"D. c #D1CFA6",
"F. c #D2CFA6",
"G. c #D3CFA9",
"H. c #D2D0A7",
"J. c #D3D0A7",
"K. c #D4D1A6",
"L. c #D4D1A8",
"P. c #D5D2A9",
"I. c #D6D3A8",
"U. c #D5D1AB",
"Y. c #D6D3AA",
"T. c #D7D4AB",
"R. c #D6D2AC",
"E. c #D7D3AD",
"W. c #D8D5AC",
"Q. c #D9D6AD",
"!. c #D8D4AE",
"~. c #D9D5AF",
"^. c #DAD7AE",
"/. c #D9D5B0",
"(. c #DAD6B0",
"). c #DAD6B1",
"_. c #DBD7B1",
"`. c #DAD8B1",
"'. c #DCD8B2",
"]. c #DCD8B3",
"[. c #DDD9B3",
"{. c #DFDCB3",
"}. c #DDD9B4",
"|. c #DEDAB4",
" X c #DFDBB5",
".X c #DFDBB6",
"XX c #DFDBB8",
"oX c #DFDCB9",
"OX c #E0DBB5",
"+X c #E0DCB7",
"@X c #E0DCB9",
"#X c #E0DDBA",
"$X c #E0DDBC",
"%X c #E4E1BE",
"&X c #E5E1BE",
"*X c white",
/* pixels */
"=.=.*.=.y.y.P.P.j.j.0.7.$ + + +   . + + J.J.!.`. X X&.;.;.=.=.=.",
"=.=.=.,.y.y.P.P.j.j.7.7.+ + + % > * + X J.J.!.!. X X&.&.>.;.,.=.",
"].].m.M.c.c.E.E.y.y.7.8.+ Z G :.F H f & d.d.y.w. X XN.B.P.P.].].",
"].].M.M.c.c.!.E.y.y.8.,.k V j m s D y y d.k.y.w. X XB.B.G.K.].].",
"=.=.J.J.(.(.m.m.=.=.9.7.V *XP v D P *Xx ,.,.7.w.N.A.].].P.P.M.M.",
"=.=.J.J.(.(.B.m.=.=.y.9.t c S 1 1 A d 8 2.7.7.w.N.N.].].P.P.M.M.",
"#.#.7.0.F.F.9.7.0.w.7.9.e r = 7 7 : w 0 >.=.y.d.y.y.}.+Xy.y.y.y.",
"#.#.7.7.F.F.w.w.y.0.7.0.< , ; = : : 0 2 >.=.l.f.y.y.{.+Xy.y.y.y.",
"=.=.y.y.M.M.7.7.) } X.[ ! ( 0 d 0 0 _ ( [ +.[ _ M.M.P.P.+XOXA.A.",
"=.=.y.y.M.M.7.7.o.} +.( [ [ ( 8 0 _ O.+.( X.[ +.M.M.P.Y.}.+XA.C.",
"E.(.B.B.F.A.(.(...+.+.+.+.+.[ ( ! ' +.| +.+.+.[ M.M.@X}.Y.K.!.`.",
"!.!.B.B.A.A.(.(. .X.O.( +.X.O.( ! O.X.| ( +.+.( M.M.+X+XP.Y.].!.",
"(.(.].].}.+XK.P.N j j j ! ! +.+.! +.! ! k j j j  X@XM.M.g.p.d.g.",
"(.(.].}.}.OXP.K.N i j j ! ! +.[ ! X.[ ! j j i j  X XM.M.f.d.l.l.",
"7.,.w.7.B.B.}.+XN i j i ! X.+.! [ X.} ! i j u j m.c.f.d.;.>.&.&.",
",.,.7.7.B.B.+X].M j j i ! O.+.^ [ | } Q i j j l c.c.l.y.=.;.*.;.",
",.,.y.y.j.j.(.!.N j j i +.X.O.! [ +.+.! i j j j *.*.*.,.$.$.*.*.",
"0.,.d.y.j.k.(.(.M j j j ! ! ! ' X.[ +.! j j j j *.*.,.>.$.$.*.,.",
",.,.y.y.F.F.F.F.C j i k T E T T T K +.! j i x x P.P.y.g.f.l.K.J.",
",.,.y.w.F.F.J.J.g j i p T U T T U T K ! i u x u P.P.g.y.d.y.J.J.",
"P.E.E.E.!.`.OX}.M.A.l.M.T T T T T T T T >.>.c.B.E.E.E.E.P.P.A.A.",
"E.P.E.E.`.!.OX}.A.M.c.c.T T T T T T T T ,.;.c.c.E.E.!.E.P.P.A.A.",
"=.=.m.m.!.E.@X@Xh.f.f.f.T T U E T T T T (.!.V.F.F.F.=.=.;.;.y.y.",
"=.=.B.M.!.!.$X@Xg.g.y.y.T T T T T T T E (.(.F.B.F.F.=.=.=.&.p.y.",
"b.c.B.B.F.A.@X@X!.P.l.m.T T T T W T T T ].].!.!.w.y.;.;.y.y.c.m.",
"c.c.B.B.N.A.oXoXY.P.m.m.T K J T W K K T ].].!.!.y.y.>.;.y.y.c.c.",
"J.P.B.A. X X@X@X%X%X(.(.T T T T T T T T 0.0.+X}.P.J.!.!.!.P.A.F.",
"P.J.F.B. X XoX%X%X%X`.(.T T U T T T T T 9.0.+X}.J.P.!.!.P.P.B.Z.",
"`.(.{. Xq.7.J.Y.].].(.`.T T T T T W T T M.l.M.c.!.`.OX+X@X%X}. X",
"!.(. X}.0.7.P.P.].].].`.T T T U T T T T l.M.m.c.].!.{.+X@X@X X X",
"y.0.7.7.;.,.oXoXm.m.w.w.5 5 4 4 4 4 6 6 y.y.y.y.P.T.@X$Xg.y.,.,.",
"7.7.9.0.>.;.$X$XB.B.s.w.5 5 4 4 4 4 6 5 y.y.y.y.!.K.@X@Xg.g.0.,."
};
